<?xml version="1.0" ?><!DOCTYPE svg  PUBLIC '-//W3C//DTD SVG 1.1//EN'  'http://www.w3.org/Graphics/SVG/1.1/DTD/svg11.dtd'><svg enable-background="new 0 0 100 100" height="100px" version="1.1" viewBox="0 0 100 100" width="100px" xml:space="preserve" xmlns="http://www.w3.org/2000/svg" xmlns:xlink="http://www.w3.org/1999/xlink"><g id="Layer_1"><g><polygon fill="#8C3123" points="58.875,43.851 72.72,42.787 72.72,25.359 58.875,28.957   "/><polygon fill="#E05243" points="64.287,41.619 49.858,39.527 49.858,14 64.287,21.215   "/><polygon fill="#E05243" points="79.928,43.866 72.72,42.821 72.72,25.359 79.928,28.965   "/><polygon fill="#5E1F18" points="58.875,43.851 72.563,42.799 79.928,43.867 66.704,44.656   "/><polygon fill="#8C3123" points="58.875,56.148 72.72,57.211 72.72,74.64 58.875,71.043   "/><polygon fill="#E05243" points="64.287,58.38 49.858,60.472 49.858,86 64.287,78.785   "/><polygon fill="#E05243" points="79.786,56.133 72.578,57.178 72.578,74.64 79.786,71.035   "/><polygon fill="#F2B0A9" points="58.875,56.148 72.563,57.2 79.928,56.133 66.704,55.342   "/><polygon fill="#E05243" points="40.983,43.851 27.139,42.787 27.139,25.359 40.983,28.957   "/><polygon fill="#8C3123" points="35.571,41.619 50,39.527 50,14 35.571,21.215   "/><polygon fill="#8C3123" points="20.072,43.866 27.28,42.821 27.28,25.359 20.072,28.965   "/><polygon fill="#5E1F18" points="41.125,43.851 27.436,42.799 20.072,43.867 33.296,44.656   "/><polygon fill="#E05243" points="40.983,56.148 27.139,57.211 27.139,74.64 40.983,71.043   "/><polygon fill="#8C3123" points="35.571,58.38 50,60.472 50,86 35.571,78.785   "/><polygon fill="#8C3123" points="20.072,56.133 27.28,57.178 27.28,74.64 20.072,71.035   "/><polygon fill="#F2B0A9" points="41.125,56.148 27.436,57.2 20.072,56.133 33.296,55.342   "/><polygon fill="#F2B0A9" points="64.429,58.38 50,56.971 35.571,58.38 50,60.495   "/><polygon fill="#5E1F18" points="64.429,41.619 50,43.012 35.571,41.619 50,39.527   "/></g></g></svg>